<?xml version="1.0" encoding="UTF-8"?>
<svg xmlns="http://www.w3.org/2000/svg" width="760" height="440" viewBox="0 0 760 440" font-family="Inter,system-ui,-apple-system,'Segoe UI',Helvetica,Arial,sans-serif">
<rect x="0.0" y="0.0" width="760.0" height="440.0" rx="0" fill="#ffffff"/>
<rect x="0.5" y="0.5" width="759.0" height="439.0" rx="10" fill="none" stroke="#e2e8f0" stroke-width="1"/>
<text x="28.0" y="34.0" font-size="17" text-anchor="start" fill="#0f172a" font-weight="bold">Cycles per call, square blocks</text>
<text x="28.0" y="54.0" font-size="12" text-anchor="start" fill="#64748b" font-weight="normal">blend (8bpc), pattern 0</text>
<text x="24.0" y="232.0" font-size="12" text-anchor="middle" fill="#64748b" font-weight="normal" transform="rotate(-90 24.0 232.0)">Cycles per call (log scale)</text>
<text x="408.0" y="424.0" font-size="12" text-anchor="middle" fill="#64748b" font-weight="normal">Block size (W×H)</text>
<line x1="84.0" y1="378.0" x2="732.0" y2="378.0" stroke="#eef1f5" stroke-width="1"/>
<text x="74.0" y="382.0" font-size="11" text-anchor="end" fill="#64748b" font-weight="normal">100</text>
<line x1="84.0" y1="280.7" x2="732.0" y2="280.7" stroke="#eef1f5" stroke-width="1"/>
<text x="74.0" y="284.7" font-size="11" text-anchor="end" fill="#64748b" font-weight="normal">1,000</text>
<line x1="84.0" y1="183.3" x2="732.0" y2="183.3" stroke="#eef1f5" stroke-width="1"/>
<text x="74.0" y="187.3" font-size="11" text-anchor="end" fill="#64748b" font-weight="normal">10,000</text>
<line x1="84.0" y1="86.0" x2="732.0" y2="86.0" stroke="#eef1f5" stroke-width="1"/>
<text x="74.0" y="90.0" font-size="11" text-anchor="end" fill="#64748b" font-weight="normal">100,000</text>
<text x="165.0" y="400.0" font-size="12" text-anchor="middle" fill="#0f172a" font-weight="normal">4×4</text>
<rect x="118.5" y="313.5" width="45.0" height="64.5" rx="4" fill="#94a3b8"/>
<text x="141.0" y="306.5" font-size="11" text-anchor="middle" fill="#64748b" font-weight="600" stroke="#ffffff" stroke-width="3.5" paint-order="stroke" stroke-linejoin="round">460</text>
<rect x="166.5" y="333.0" width="45.0" height="45.0" rx="4" fill="#2563eb"/>
<text x="189.0" y="326.0" font-size="11" text-anchor="middle" fill="#1d4ed8" font-weight="600" stroke="#ffffff" stroke-width="3.5" paint-order="stroke" stroke-linejoin="round">290</text>
<text x="327.0" y="400.0" font-size="12" text-anchor="middle" fill="#0f172a" font-weight="normal">8×8</text>
<rect x="280.5" y="266.1" width="45.0" height="111.9" rx="4" fill="#94a3b8"/>
<text x="303.0" y="259.1" font-size="11" text-anchor="middle" fill="#64748b" font-weight="600" stroke="#ffffff" stroke-width="3.5" paint-order="stroke" stroke-linejoin="round">1,411</text>
<rect x="328.5" y="320.5" width="45.0" height="57.5" rx="4" fill="#2563eb"/>
<text x="351.0" y="313.5" font-size="11" text-anchor="middle" fill="#1d4ed8" font-weight="600" stroke="#ffffff" stroke-width="3.5" paint-order="stroke" stroke-linejoin="round">390</text>
<text x="489.0" y="400.0" font-size="12" text-anchor="middle" fill="#0f172a" font-weight="normal">16×16</text>
<rect x="442.5" y="210.1" width="45.0" height="167.9" rx="4" fill="#94a3b8"/>
<text x="465.0" y="203.1" font-size="11" text-anchor="middle" fill="#64748b" font-weight="600" stroke="#ffffff" stroke-width="3.5" paint-order="stroke" stroke-linejoin="round">5,304</text>
<rect x="490.5" y="294.2" width="45.0" height="83.8" rx="4" fill="#2563eb"/>
<text x="513.0" y="287.2" font-size="11" text-anchor="middle" fill="#1d4ed8" font-weight="600" stroke="#ffffff" stroke-width="3.5" paint-order="stroke" stroke-linejoin="round">726</text>
<text x="651.0" y="400.0" font-size="12" text-anchor="middle" fill="#0f172a" font-weight="normal">32×32</text>
<rect x="604.5" y="152.9" width="45.0" height="225.1" rx="4" fill="#94a3b8"/>
<text x="627.0" y="145.9" font-size="11" text-anchor="middle" fill="#64748b" font-weight="600" stroke="#ffffff" stroke-width="3.5" paint-order="stroke" stroke-linejoin="round">20,557</text>
<rect x="652.5" y="267.1" width="45.0" height="110.9" rx="4" fill="#2563eb"/>
<text x="675.0" y="260.1" font-size="11" text-anchor="middle" fill="#1d4ed8" font-weight="600" stroke="#ffffff" stroke-width="3.5" paint-order="stroke" stroke-linejoin="round">1,380</text>
<line x1="84.0" y1="378.0" x2="732.0" y2="378.0" stroke="#cbd5e1" stroke-width="1.5"/>
<rect x="624.0" y="24.0" width="12.0" height="12.0" rx="3" fill="#94a3b8"/>
<text x="642.0" y="34.0" font-size="12" text-anchor="start" fill="#64748b" font-weight="normal">C</text>
<rect x="671.0" y="24.0" width="12.0" height="12.0" rx="3" fill="#2563eb"/>
<text x="689.0" y="34.0" font-size="12" text-anchor="start" fill="#64748b" font-weight="normal">RVV</text>
</svg>
