<?xml version="1.0" encoding="UTF-8"?>
<svg xmlns="http://www.w3.org/2000/svg" width="1024" height="512" viewBox="0 0 1024 512">
<style>:root{--ink:#0f172a;--muted:#64748b;--grid:#e2e8f0;--axis:#94a3b8;--c:#94a3b8;--c-ink:#64748b;--r:#2563eb;--r-ink:#1d4ed8;--bad:#ef4444;}@media (prefers-color-scheme: dark){:root{--ink:#e6edf3;--muted:#9198a1;--grid:#3d444d;--axis:#6e7681;--c:#8b949e;--c-ink:#adb5bd;--r:#58a6ff;--r-ink:#79c0ff;--bad:#f85149;}}text{font-family:system-ui,-apple-system,'Segoe UI',Roboto,Helvetica,Arial,sans-serif}</style>
<text x="28.0" y="34.0" font-size="17" text-anchor="start" font-weight="bold" style="fill:var(--ink)">Cycles per pixel, square blocks</text>
<text x="28.0" y="54.0" font-size="12" text-anchor="start" font-weight="normal" style="fill:var(--muted)">blend_h (8bpc), pattern 1</text>
<text x="24.0" y="268.0" font-size="12" text-anchor="middle" font-weight="normal" style="fill:var(--muted)" transform="rotate(-90 24.0 268.0)">Cycles per pixel</text>
<text x="540.0" y="496.0" font-size="12" text-anchor="middle" font-weight="normal" style="fill:var(--muted)">Block size (W×H)</text>
<line x1="84.0" y1="450.0" x2="996.0" y2="450.0" style="stroke:var(--grid);stroke-width:1"/>
<text x="74.0" y="454.0" font-size="11" text-anchor="end" font-weight="normal" style="fill:var(--muted)">0</text>
<line x1="84.0" y1="377.2" x2="996.0" y2="377.2" style="stroke:var(--grid);stroke-width:1"/>
<text x="74.0" y="381.2" font-size="11" text-anchor="end" font-weight="normal" style="fill:var(--muted)">5</text>
<line x1="84.0" y1="304.4" x2="996.0" y2="304.4" style="stroke:var(--grid);stroke-width:1"/>
<text x="74.0" y="308.4" font-size="11" text-anchor="end" font-weight="normal" style="fill:var(--muted)">10</text>
<line x1="84.0" y1="231.6" x2="996.0" y2="231.6" style="stroke:var(--grid);stroke-width:1"/>
<text x="74.0" y="235.6" font-size="11" text-anchor="end" font-weight="normal" style="fill:var(--muted)">15</text>
<line x1="84.0" y1="158.8" x2="996.0" y2="158.8" style="stroke:var(--grid);stroke-width:1"/>
<text x="74.0" y="162.8" font-size="11" text-anchor="end" font-weight="normal" style="fill:var(--muted)">20</text>
<line x1="84.0" y1="86.0" x2="996.0" y2="86.0" style="stroke:var(--grid);stroke-width:1"/>
<text x="74.0" y="90.0" font-size="11" text-anchor="end" font-weight="normal" style="fill:var(--muted)">25</text>
<line x1="84.0" y1="450.0" x2="996.0" y2="450.0" style="stroke:var(--axis);stroke-width:1.5"/>
<text x="198.0" y="472.0" font-size="12" text-anchor="middle" font-weight="normal" style="fill:var(--ink)">4×4</text>
<text x="426.0" y="472.0" font-size="12" text-anchor="middle" font-weight="normal" style="fill:var(--ink)">8×8</text>
<text x="654.0" y="472.0" font-size="12" text-anchor="middle" font-weight="normal" style="fill:var(--ink)">16×16</text>
<text x="882.0" y="472.0" font-size="12" text-anchor="middle" font-weight="normal" style="fill:var(--ink)">32×32</text>
<polyline points="198.0,194.3 426.0,254.3 654.0,275.3 882.0,283.2" style="fill:none;stroke:var(--c);stroke-width:2.5" stroke-linejoin="round" stroke-linecap="round"/>
<polyline points="198.0,259.8 426.0,382.0 654.0,416.8 882.0,434.3" style="fill:none;stroke:var(--r);stroke-width:2.5" stroke-linejoin="round" stroke-linecap="round"/>
<circle cx="198.0" cy="194.3" r="5" style="fill:var(--c)"/>
<circle cx="426.0" cy="254.3" r="5" style="fill:var(--c)"/>
<circle cx="654.0" cy="275.3" r="5" style="fill:var(--c)"/>
<circle cx="882.0" cy="283.2" r="5" style="fill:var(--c)"/>
<circle cx="198.0" cy="259.8" r="5" style="fill:var(--r)"/>
<circle cx="426.0" cy="382.0" r="5" style="fill:var(--r)"/>
<circle cx="654.0" cy="416.8" r="5" style="fill:var(--r)"/>
<circle cx="882.0" cy="434.3" r="5" style="fill:var(--r)"/>
<text x="198.0" y="181.3" font-size="11" text-anchor="middle" font-weight="600" style="fill:var(--c-ink)">17.56</text>
<text x="198.0" y="281.8" font-size="11" text-anchor="middle" font-weight="600" style="fill:var(--r-ink)">13.06</text>
<text x="426.0" y="241.3" font-size="11" text-anchor="middle" font-weight="600" style="fill:var(--c-ink)">13.44</text>
<text x="426.0" y="404.0" font-size="11" text-anchor="middle" font-weight="600" style="fill:var(--r-ink)">4.67</text>
<text x="654.0" y="262.3" font-size="11" text-anchor="middle" font-weight="600" style="fill:var(--c-ink)">12.00</text>
<text x="654.0" y="438.8" font-size="11" text-anchor="middle" font-weight="600" style="fill:var(--r-ink)">2.28</text>
<text x="882.0" y="270.2" font-size="11" text-anchor="middle" font-weight="600" style="fill:var(--c-ink)">11.46</text>
<text x="882.0" y="421.3" font-size="11" text-anchor="middle" font-weight="600" style="fill:var(--r-ink)">1.08</text>
<rect x="888.0" y="24.0" width="12.0" height="12.0" rx="3" style="fill:var(--c)"/>
<text x="906.0" y="34.0" font-size="12" text-anchor="start" font-weight="normal" style="fill:var(--muted)">C</text>
<rect x="935.0" y="24.0" width="12.0" height="12.0" rx="3" style="fill:var(--r)"/>
<text x="953.0" y="34.0" font-size="12" text-anchor="start" font-weight="normal" style="fill:var(--muted)">RVV</text>
</svg>
