<?xml version="1.0" encoding="UTF-8"?>
<svg xmlns="http://www.w3.org/2000/svg" width="1024" height="512" viewBox="0 0 1024 512">
<style>:root{--ink:#0f172a;--muted:#64748b;--grid:#e2e8f0;--axis:#94a3b8;--c:#94a3b8;--c-ink:#64748b;--r:#2563eb;--r-ink:#1d4ed8;--bad:#ef4444;}@media (prefers-color-scheme: dark){:root{--ink:#e6edf3;--muted:#9198a1;--grid:#3d444d;--axis:#6e7681;--c:#8b949e;--c-ink:#adb5bd;--r:#58a6ff;--r-ink:#79c0ff;--bad:#f85149;}}text{font-family:system-ui,-apple-system,'Segoe UI',Roboto,Helvetica,Arial,sans-serif}</style>
<text x="28.0" y="34.0" font-size="17" text-anchor="start" font-weight="bold" style="fill:var(--ink)">Cycles per pixel, square blocks</text>
<text x="28.0" y="54.0" font-size="12" text-anchor="start" font-weight="normal" style="fill:var(--muted)">cfl_pred (8bpc), pattern 1</text>
<text x="24.0" y="268.0" font-size="12" text-anchor="middle" font-weight="normal" style="fill:var(--muted)" transform="rotate(-90 24.0 268.0)">Cycles per pixel</text>
<text x="540.0" y="496.0" font-size="12" text-anchor="middle" font-weight="normal" style="fill:var(--muted)">Block size (W×H)</text>
<line x1="84.0" y1="450.0" x2="996.0" y2="450.0" style="stroke:var(--grid);stroke-width:1"/>
<text x="74.0" y="454.0" font-size="11" text-anchor="end" font-weight="normal" style="fill:var(--muted)">0</text>
<line x1="84.0" y1="328.7" x2="996.0" y2="328.7" style="stroke:var(--grid);stroke-width:1"/>
<text x="74.0" y="332.7" font-size="11" text-anchor="end" font-weight="normal" style="fill:var(--muted)">20</text>
<line x1="84.0" y1="207.3" x2="996.0" y2="207.3" style="stroke:var(--grid);stroke-width:1"/>
<text x="74.0" y="211.3" font-size="11" text-anchor="end" font-weight="normal" style="fill:var(--muted)">40</text>
<line x1="84.0" y1="86.0" x2="996.0" y2="86.0" style="stroke:var(--grid);stroke-width:1"/>
<text x="74.0" y="90.0" font-size="11" text-anchor="end" font-weight="normal" style="fill:var(--muted)">60</text>
<line x1="84.0" y1="450.0" x2="996.0" y2="450.0" style="stroke:var(--axis);stroke-width:1.5"/>
<text x="198.0" y="472.0" font-size="12" text-anchor="middle" font-weight="normal" style="fill:var(--ink)">4×4</text>
<text x="426.0" y="472.0" font-size="12" text-anchor="middle" font-weight="normal" style="fill:var(--ink)">8×8</text>
<text x="654.0" y="472.0" font-size="12" text-anchor="middle" font-weight="normal" style="fill:var(--ink)">16×16</text>
<text x="882.0" y="472.0" font-size="12" text-anchor="middle" font-weight="normal" style="fill:var(--ink)">32×32</text>
<polyline points="198.0,251.3 426.0,282.0 654.0,287.2 882.0,288.5" style="fill:none;stroke:var(--c);stroke-width:2.5" stroke-linejoin="round" stroke-linecap="round"/>
<polyline points="198.0,139.5 426.0,296.8 654.0,372.2 882.0,409.1" style="fill:none;stroke:var(--r);stroke-width:2.5" stroke-linejoin="round" stroke-linecap="round"/>
<circle cx="198.0" cy="251.3" r="5" style="fill:var(--c)"/>
<circle cx="426.0" cy="282.0" r="5" style="fill:var(--c)"/>
<circle cx="654.0" cy="287.2" r="5" style="fill:var(--c)"/>
<circle cx="882.0" cy="288.5" r="5" style="fill:var(--c)"/>
<circle cx="198.0" cy="139.5" r="5" style="fill:var(--r)"/>
<circle cx="426.0" cy="296.8" r="5" style="fill:var(--r)"/>
<circle cx="654.0" cy="372.2" r="5" style="fill:var(--r)"/>
<circle cx="882.0" cy="409.1" r="5" style="fill:var(--r)"/>
<text x="198.0" y="273.3" font-size="11" text-anchor="middle" font-weight="600" style="fill:var(--c-ink)">32.75</text>
<text x="198.0" y="126.5" font-size="11" text-anchor="middle" font-weight="600" style="fill:var(--r-ink)">51.19</text>
<text x="426.0" y="269.0" font-size="11" text-anchor="middle" font-weight="600" style="fill:var(--c-ink)">27.69</text>
<text x="426.0" y="318.8" font-size="11" text-anchor="middle" font-weight="600" style="fill:var(--r-ink)">25.25</text>
<text x="654.0" y="274.2" font-size="11" text-anchor="middle" font-weight="600" style="fill:var(--c-ink)">26.84</text>
<text x="654.0" y="394.2" font-size="11" text-anchor="middle" font-weight="600" style="fill:var(--r-ink)">12.83</text>
<text x="882.0" y="275.5" font-size="11" text-anchor="middle" font-weight="600" style="fill:var(--c-ink)">26.63</text>
<text x="882.0" y="431.1" font-size="11" text-anchor="middle" font-weight="600" style="fill:var(--r-ink)">6.74</text>
<rect x="888.0" y="24.0" width="12.0" height="12.0" rx="3" style="fill:var(--c)"/>
<text x="906.0" y="34.0" font-size="12" text-anchor="start" font-weight="normal" style="fill:var(--muted)">C</text>
<rect x="935.0" y="24.0" width="12.0" height="12.0" rx="3" style="fill:var(--r)"/>
<text x="953.0" y="34.0" font-size="12" text-anchor="start" font-weight="normal" style="fill:var(--muted)">RVV</text>
</svg>
