<?xml version="1.0" encoding="UTF-8"?>
<svg xmlns="http://www.w3.org/2000/svg" width="620" height="468" viewBox="0 0 620 468" font-family="Inter,system-ui,-apple-system,'Segoe UI',Helvetica,Arial,sans-serif">
<rect x="0.0" y="0.0" width="620.0" height="468.0" rx="0" fill="#ffffff"/>
<rect x="0.5" y="0.5" width="619.0" height="467.0" rx="10" fill="none" stroke="#e2e8f0" stroke-width="1"/>
<text x="28.0" y="34.0" font-size="17" text-anchor="start" fill="#0f172a" font-weight="bold">Speedup (C / RVV) over W×H</text>
<text x="28.0" y="54.0" font-size="12" text-anchor="start" fill="#64748b" font-weight="normal">ipred_h (8bpc), pattern 0</text>
<text x="324.0" y="90.0" font-size="12" text-anchor="middle" fill="#64748b" font-weight="normal">Width</text>
<text x="56.0" y="243.0" font-size="12" text-anchor="middle" fill="#64748b" font-weight="normal" transform="rotate(-90 56.0 243.0)">Height</text>
<text x="156.0" y="106.0" font-size="13" text-anchor="middle" fill="#0f172a" font-weight="600">4</text>
<text x="240.0" y="106.0" font-size="13" text-anchor="middle" fill="#0f172a" font-weight="600">8</text>
<text x="324.0" y="106.0" font-size="13" text-anchor="middle" fill="#0f172a" font-weight="600">16</text>
<text x="408.0" y="106.0" font-size="13" text-anchor="middle" fill="#0f172a" font-weight="600">32</text>
<text x="492.0" y="106.0" font-size="13" text-anchor="middle" fill="#0f172a" font-weight="600">64</text>
<text x="100.0" y="148.0" font-size="13" text-anchor="end" fill="#0f172a" font-weight="600">4</text>
<rect x="116.0" y="120.0" width="80.0" height="46.0" rx="6" fill="#91b0f5"/>
<text x="156.0" y="148.0" font-size="13" text-anchor="middle" fill="#0f172a" font-weight="500">2.01×</text>
<rect x="200.0" y="120.0" width="80.0" height="46.0" rx="6" fill="#aac2f7"/>
<text x="240.0" y="148.0" font-size="13" text-anchor="middle" fill="#0f172a" font-weight="500">1.71×</text>
<rect x="284.0" y="120.0" width="80.0" height="46.0" rx="6" fill="#749bf2"/>
<text x="324.0" y="148.0" font-size="13" text-anchor="middle" fill="#ffffff" font-weight="500">2.42×</text>
<rect x="368.0" y="120.0" width="80.0" height="46.0" rx="6" fill="#5d8bf0"/>
<text x="408.0" y="148.0" font-size="13" text-anchor="middle" fill="#ffffff" font-weight="500">2.81×</text>
<rect x="452.0" y="120.0" width="80.0" height="46.0" rx="6" fill="#4278ee"/>
<text x="492.0" y="148.0" font-size="13" text-anchor="middle" fill="#ffffff" font-weight="500">3.33×</text>
<text x="100.0" y="198.0" font-size="13" text-anchor="end" fill="#0f172a" font-weight="600">8</text>
<rect x="116.0" y="170.0" width="80.0" height="46.0" rx="6" fill="#7fa3f3"/>
<text x="156.0" y="198.0" font-size="13" text-anchor="middle" fill="#0f172a" font-weight="500">2.26×</text>
<rect x="200.0" y="170.0" width="80.0" height="46.0" rx="6" fill="#8bacf4"/>
<text x="240.0" y="198.0" font-size="13" text-anchor="middle" fill="#0f172a" font-weight="500">2.09×</text>
<rect x="284.0" y="170.0" width="80.0" height="46.0" rx="6" fill="#6591f1"/>
<text x="324.0" y="198.0" font-size="13" text-anchor="middle" fill="#ffffff" font-weight="500">2.67×</text>
<rect x="368.0" y="170.0" width="80.0" height="46.0" rx="6" fill="#5283ef"/>
<text x="408.0" y="198.0" font-size="13" text-anchor="middle" fill="#ffffff" font-weight="500">3.01×</text>
<rect x="452.0" y="170.0" width="80.0" height="46.0" rx="6" fill="#3871ed"/>
<text x="492.0" y="198.0" font-size="13" text-anchor="middle" fill="#ffffff" font-weight="500">3.54×</text>
<text x="100.0" y="248.0" font-size="13" text-anchor="end" fill="#0f172a" font-weight="600">16</text>
<rect x="116.0" y="220.0" width="80.0" height="46.0" rx="6" fill="#4b7eef"/>
<text x="156.0" y="248.0" font-size="13" text-anchor="middle" fill="#ffffff" font-weight="500">3.14×</text>
<rect x="200.0" y="220.0" width="80.0" height="46.0" rx="6" fill="#a6c0f7"/>
<text x="240.0" y="248.0" font-size="13" text-anchor="middle" fill="#0f172a" font-weight="500">1.76×</text>
<rect x="284.0" y="220.0" width="80.0" height="46.0" rx="6" fill="#779df2"/>
<text x="324.0" y="248.0" font-size="13" text-anchor="middle" fill="#ffffff" font-weight="500">2.38×</text>
<rect x="368.0" y="220.0" width="80.0" height="46.0" rx="6" fill="#6893f1"/>
<text x="408.0" y="248.0" font-size="13" text-anchor="middle" fill="#ffffff" font-weight="500">2.61×</text>
<rect x="452.0" y="220.0" width="80.0" height="46.0" rx="6" fill="#3e75ed"/>
<text x="492.0" y="248.0" font-size="13" text-anchor="middle" fill="#ffffff" font-weight="500">3.42×</text>
<text x="100.0" y="298.0" font-size="13" text-anchor="end" fill="#0f172a" font-weight="600">32</text>
<rect x="116.0" y="270.0" width="80.0" height="46.0" rx="6" fill="#5182ef"/>
<text x="156.0" y="298.0" font-size="13" text-anchor="middle" fill="#ffffff" font-weight="500">3.03×</text>
<rect x="200.0" y="270.0" width="80.0" height="46.0" rx="6" fill="#a8c1f7"/>
<text x="240.0" y="298.0" font-size="13" text-anchor="middle" fill="#0f172a" font-weight="500">1.74×</text>
<rect x="284.0" y="270.0" width="80.0" height="46.0" rx="6" fill="#779ef3"/>
<text x="324.0" y="298.0" font-size="13" text-anchor="middle" fill="#ffffff" font-weight="500">2.37×</text>
<rect x="368.0" y="270.0" width="80.0" height="46.0" rx="6" fill="#5b8af0"/>
<text x="408.0" y="298.0" font-size="13" text-anchor="middle" fill="#ffffff" font-weight="500">2.84×</text>
<rect x="452.0" y="270.0" width="80.0" height="46.0" rx="6" fill="#3971ed"/>
<text x="492.0" y="298.0" font-size="13" text-anchor="middle" fill="#ffffff" font-weight="500">3.53×</text>
<text x="100.0" y="348.0" font-size="13" text-anchor="end" fill="#0f172a" font-weight="600">64</text>
<rect x="116.0" y="320.0" width="80.0" height="46.0" rx="6" fill="#7099f2"/>
<text x="156.0" y="348.0" font-size="13" text-anchor="middle" fill="#ffffff" font-weight="500">2.48×</text>
<rect x="200.0" y="320.0" width="80.0" height="46.0" rx="6" fill="#abc3f7"/>
<text x="240.0" y="348.0" font-size="13" text-anchor="middle" fill="#0f172a" font-weight="500">1.71×</text>
<rect x="284.0" y="320.0" width="80.0" height="46.0" rx="6" fill="#779ef3"/>
<text x="324.0" y="348.0" font-size="13" text-anchor="middle" fill="#ffffff" font-weight="500">2.37×</text>
<rect x="368.0" y="320.0" width="80.0" height="46.0" rx="6" fill="#6591f1"/>
<text x="408.0" y="348.0" font-size="13" text-anchor="middle" fill="#ffffff" font-weight="500">2.66×</text>
<rect x="452.0" y="320.0" width="80.0" height="46.0" rx="6" fill="#497dee"/>
<text x="492.0" y="348.0" font-size="13" text-anchor="middle" fill="#ffffff" font-weight="500">3.18×</text>
<defs><linearGradient id="hg" x1="0" x2="1" y1="0" y2="0"><stop offset="0" stop-color="rgb(239, 68, 68)"/><stop offset="0.3333" stop-color="rgb(255, 255, 255)"/><stop offset="1" stop-color="rgb(37, 99, 235)"/></linearGradient></defs>
<rect x="114.0" y="394" width="420" height="12" rx="6" fill="url(#hg)" stroke="#cbd5e1"/>
<text x="114.0" y="426.0" font-size="11" text-anchor="start" fill="#64748b" font-weight="normal">≤ 0.5×  C faster</text>
<text x="254.0" y="426.0" font-size="11" text-anchor="middle" fill="#64748b" font-weight="normal">1×</text>
<text x="534.0" y="426.0" font-size="11" text-anchor="end" fill="#64748b" font-weight="normal">RVV faster  ≥ 4×</text>
</svg>
