<?xml version="1.0" encoding="UTF-8"?>
<svg xmlns="http://www.w3.org/2000/svg" width="760" height="440" viewBox="0 0 760 440" font-family="Inter,system-ui,-apple-system,'Segoe UI',Helvetica,Arial,sans-serif">
<rect x="0.0" y="0.0" width="760.0" height="440.0" rx="0" fill="#ffffff"/>
<rect x="0.5" y="0.5" width="759.0" height="439.0" rx="10" fill="none" stroke="#e2e8f0" stroke-width="1"/>
<text x="28.0" y="34.0" font-size="17" text-anchor="start" fill="#0f172a" font-weight="bold">Cycles per call, square blocks</text>
<text x="28.0" y="54.0" font-size="12" text-anchor="start" fill="#64748b" font-weight="normal">ipred_h (8bpc), pattern 0</text>
<text x="24.0" y="232.0" font-size="12" text-anchor="middle" fill="#64748b" font-weight="normal" transform="rotate(-90 24.0 232.0)">Cycles per call (log scale)</text>
<text x="408.0" y="424.0" font-size="12" text-anchor="middle" fill="#64748b" font-weight="normal">Block size (W×H)</text>
<line x1="84.0" y1="378.0" x2="732.0" y2="378.0" stroke="#eef1f5" stroke-width="1"/>
<text x="74.0" y="382.0" font-size="11" text-anchor="end" fill="#64748b" font-weight="normal">100</text>
<line x1="84.0" y1="232.0" x2="732.0" y2="232.0" stroke="#eef1f5" stroke-width="1"/>
<text x="74.0" y="236.0" font-size="11" text-anchor="end" fill="#64748b" font-weight="normal">1,000</text>
<line x1="84.0" y1="86.0" x2="732.0" y2="86.0" stroke="#eef1f5" stroke-width="1"/>
<text x="74.0" y="90.0" font-size="11" text-anchor="end" fill="#64748b" font-weight="normal">10,000</text>
<text x="148.8" y="400.0" font-size="12" text-anchor="middle" fill="#0f172a" font-weight="normal">4×4</text>
<rect x="102.3" y="313.2" width="45.0" height="64.8" rx="4" fill="#94a3b8"/>
<text x="124.8" y="306.2" font-size="11" text-anchor="middle" fill="#64748b" font-weight="600" stroke="#ffffff" stroke-width="3.5" paint-order="stroke" stroke-linejoin="round">278</text>
<rect x="150.3" y="357.6" width="45.0" height="20.4" rx="4" fill="#2563eb"/>
<text x="172.8" y="350.6" font-size="11" text-anchor="middle" fill="#1d4ed8" font-weight="600" stroke="#ffffff" stroke-width="3.5" paint-order="stroke" stroke-linejoin="round">138</text>
<text x="278.4" y="400.0" font-size="12" text-anchor="middle" fill="#0f172a" font-weight="normal">8×8</text>
<rect x="231.9" y="312.7" width="45.0" height="65.3" rx="4" fill="#94a3b8"/>
<text x="254.4" y="305.7" font-size="11" text-anchor="middle" fill="#64748b" font-weight="600" stroke="#ffffff" stroke-width="3.5" paint-order="stroke" stroke-linejoin="round">280</text>
<rect x="279.9" y="359.4" width="45.0" height="18.6" rx="4" fill="#2563eb"/>
<text x="302.4" y="352.4" font-size="11" text-anchor="middle" fill="#1d4ed8" font-weight="600" stroke="#ffffff" stroke-width="3.5" paint-order="stroke" stroke-linejoin="round">134</text>
<text x="408.0" y="400.0" font-size="12" text-anchor="middle" fill="#0f172a" font-weight="normal">16×16</text>
<rect x="361.5" y="257.5" width="45.0" height="120.5" rx="4" fill="#94a3b8"/>
<text x="384.0" y="250.5" font-size="11" text-anchor="middle" fill="#64748b" font-weight="600" stroke="#ffffff" stroke-width="3.5" paint-order="stroke" stroke-linejoin="round">669</text>
<rect x="409.5" y="312.5" width="45.0" height="65.5" rx="4" fill="#2563eb"/>
<text x="432.0" y="305.5" font-size="11" text-anchor="middle" fill="#1d4ed8" font-weight="600" stroke="#ffffff" stroke-width="3.5" paint-order="stroke" stroke-linejoin="round">281</text>
<text x="537.6" y="400.0" font-size="12" text-anchor="middle" fill="#0f172a" font-weight="normal">32×32</text>
<rect x="491.1" y="199.3" width="45.0" height="178.7" rx="4" fill="#94a3b8"/>
<text x="513.6" y="192.3" font-size="11" text-anchor="middle" fill="#64748b" font-weight="600" stroke="#ffffff" stroke-width="3.5" paint-order="stroke" stroke-linejoin="round">1,676</text>
<rect x="539.1" y="265.5" width="45.0" height="112.5" rx="4" fill="#2563eb"/>
<text x="561.6" y="258.5" font-size="11" text-anchor="middle" fill="#1d4ed8" font-weight="600" stroke="#ffffff" stroke-width="3.5" paint-order="stroke" stroke-linejoin="round">590</text>
<text x="667.2" y="400.0" font-size="12" text-anchor="middle" fill="#0f172a" font-weight="normal">64×64</text>
<rect x="620.7" y="140.3" width="45.0" height="237.7" rx="4" fill="#94a3b8"/>
<text x="643.2" y="133.3" font-size="11" text-anchor="middle" fill="#64748b" font-weight="600" stroke="#ffffff" stroke-width="3.5" paint-order="stroke" stroke-linejoin="round">4,247</text>
<rect x="668.7" y="213.7" width="45.0" height="164.3" rx="4" fill="#2563eb"/>
<text x="691.2" y="206.7" font-size="11" text-anchor="middle" fill="#1d4ed8" font-weight="600" stroke="#ffffff" stroke-width="3.5" paint-order="stroke" stroke-linejoin="round">1,335</text>
<line x1="84.0" y1="378.0" x2="732.0" y2="378.0" stroke="#cbd5e1" stroke-width="1.5"/>
<rect x="624.0" y="24.0" width="12.0" height="12.0" rx="3" fill="#94a3b8"/>
<text x="642.0" y="34.0" font-size="12" text-anchor="start" fill="#64748b" font-weight="normal">C</text>
<rect x="671.0" y="24.0" width="12.0" height="12.0" rx="3" fill="#2563eb"/>
<text x="689.0" y="34.0" font-size="12" text-anchor="start" fill="#64748b" font-weight="normal">RVV</text>
</svg>
