<?xml version="1.0" encoding="UTF-8"?>
<svg xmlns="http://www.w3.org/2000/svg" width="760" height="440" viewBox="0 0 760 440" font-family="Inter,system-ui,-apple-system,'Segoe UI',Helvetica,Arial,sans-serif">
<rect x="0.0" y="0.0" width="760.0" height="440.0" rx="0" fill="#ffffff"/>
<rect x="0.5" y="0.5" width="759.0" height="439.0" rx="10" fill="none" stroke="#e2e8f0" stroke-width="1"/>
<text x="28.0" y="34.0" font-size="17" text-anchor="start" fill="#0f172a" font-weight="bold">Cycles per pixel, square blocks</text>
<text x="28.0" y="54.0" font-size="12" text-anchor="start" fill="#64748b" font-weight="normal">ipred_paeth (8bpc), pattern 0</text>
<text x="24.0" y="232.0" font-size="12" text-anchor="middle" fill="#64748b" font-weight="normal" transform="rotate(-90 24.0 232.0)">Cycles per pixel</text>
<text x="408.0" y="424.0" font-size="12" text-anchor="middle" fill="#64748b" font-weight="normal">Block size (W×H)</text>
<line x1="84.0" y1="378.0" x2="732.0" y2="378.0" stroke="#eef1f5" stroke-width="1"/>
<text x="74.0" y="382.0" font-size="11" text-anchor="end" fill="#64748b" font-weight="normal">0</text>
<line x1="84.0" y1="305.0" x2="732.0" y2="305.0" stroke="#eef1f5" stroke-width="1"/>
<text x="74.0" y="309.0" font-size="11" text-anchor="end" fill="#64748b" font-weight="normal">20</text>
<line x1="84.0" y1="232.0" x2="732.0" y2="232.0" stroke="#eef1f5" stroke-width="1"/>
<text x="74.0" y="236.0" font-size="11" text-anchor="end" fill="#64748b" font-weight="normal">40</text>
<line x1="84.0" y1="159.0" x2="732.0" y2="159.0" stroke="#eef1f5" stroke-width="1"/>
<text x="74.0" y="163.0" font-size="11" text-anchor="end" fill="#64748b" font-weight="normal">60</text>
<line x1="84.0" y1="86.0" x2="732.0" y2="86.0" stroke="#eef1f5" stroke-width="1"/>
<text x="74.0" y="90.0" font-size="11" text-anchor="end" fill="#64748b" font-weight="normal">80</text>
<line x1="84.0" y1="378.0" x2="732.0" y2="378.0" stroke="#cbd5e1" stroke-width="1.5"/>
<text x="148.8" y="400.0" font-size="12" text-anchor="middle" fill="#0f172a" font-weight="normal">4×4</text>
<text x="278.4" y="400.0" font-size="12" text-anchor="middle" fill="#0f172a" font-weight="normal">8×8</text>
<text x="408.0" y="400.0" font-size="12" text-anchor="middle" fill="#0f172a" font-weight="normal">16×16</text>
<text x="537.6" y="400.0" font-size="12" text-anchor="middle" fill="#0f172a" font-weight="normal">32×32</text>
<text x="667.2" y="400.0" font-size="12" text-anchor="middle" fill="#0f172a" font-weight="normal">64×64</text>
<polyline points="148.8,245.2 278.4,275.4 408.0,283.8 537.6,284.2 667.2,286.7" fill="none" stroke="#94a3b8" stroke-width="2.5" stroke-linejoin="round" stroke-linecap="round"/>
<polyline points="148.8,157.2 278.4,270.9 408.0,320.7 537.6,345.6 667.2,356.8" fill="none" stroke="#2563eb" stroke-width="2.5" stroke-linejoin="round" stroke-linecap="round"/>
<circle cx="148.8" cy="245.2" r="5" fill="#94a3b8" stroke="#ffffff" stroke-width="2"/>
<circle cx="278.4" cy="275.4" r="5" fill="#94a3b8" stroke="#ffffff" stroke-width="2"/>
<circle cx="408.0" cy="283.8" r="5" fill="#94a3b8" stroke="#ffffff" stroke-width="2"/>
<circle cx="537.6" cy="284.2" r="5" fill="#94a3b8" stroke="#ffffff" stroke-width="2"/>
<circle cx="667.2" cy="286.7" r="5" fill="#94a3b8" stroke="#ffffff" stroke-width="2"/>
<circle cx="148.8" cy="157.2" r="5" fill="#2563eb" stroke="#ffffff" stroke-width="2"/>
<circle cx="278.4" cy="270.9" r="5" fill="#2563eb" stroke="#ffffff" stroke-width="2"/>
<circle cx="408.0" cy="320.7" r="5" fill="#2563eb" stroke="#ffffff" stroke-width="2"/>
<circle cx="537.6" cy="345.6" r="5" fill="#2563eb" stroke="#ffffff" stroke-width="2"/>
<circle cx="667.2" cy="356.8" r="5" fill="#2563eb" stroke="#ffffff" stroke-width="2"/>
<text x="148.8" y="267.2" font-size="11" text-anchor="middle" fill="#64748b" font-weight="600" stroke="#ffffff" stroke-width="3.5" paint-order="stroke" stroke-linejoin="round">36.38</text>
<text x="148.8" y="144.2" font-size="11" text-anchor="middle" fill="#2563eb" font-weight="600" stroke="#ffffff" stroke-width="3.5" paint-order="stroke" stroke-linejoin="round">60.50</text>
<text x="278.4" y="297.4" font-size="11" text-anchor="middle" fill="#64748b" font-weight="600" stroke="#ffffff" stroke-width="3.5" paint-order="stroke" stroke-linejoin="round">28.11</text>
<text x="278.4" y="257.9" font-size="11" text-anchor="middle" fill="#2563eb" font-weight="600" stroke="#ffffff" stroke-width="3.5" paint-order="stroke" stroke-linejoin="round">29.34</text>
<text x="408.0" y="270.8" font-size="11" text-anchor="middle" fill="#64748b" font-weight="600" stroke="#ffffff" stroke-width="3.5" paint-order="stroke" stroke-linejoin="round">25.82</text>
<text x="408.0" y="342.7" font-size="11" text-anchor="middle" fill="#2563eb" font-weight="600" stroke="#ffffff" stroke-width="3.5" paint-order="stroke" stroke-linejoin="round">15.71</text>
<text x="537.6" y="271.2" font-size="11" text-anchor="middle" fill="#64748b" font-weight="600" stroke="#ffffff" stroke-width="3.5" paint-order="stroke" stroke-linejoin="round">25.69</text>
<text x="537.6" y="367.6" font-size="11" text-anchor="middle" fill="#2563eb" font-weight="600" stroke="#ffffff" stroke-width="3.5" paint-order="stroke" stroke-linejoin="round">8.88</text>
<text x="667.2" y="273.7" font-size="11" text-anchor="middle" fill="#64748b" font-weight="600" stroke="#ffffff" stroke-width="3.5" paint-order="stroke" stroke-linejoin="round">25.01</text>
<text x="667.2" y="343.8" font-size="11" text-anchor="middle" fill="#2563eb" font-weight="600" stroke="#ffffff" stroke-width="3.5" paint-order="stroke" stroke-linejoin="round">5.80</text>
<rect x="624.0" y="24.0" width="12.0" height="12.0" rx="3" fill="#94a3b8"/>
<text x="642.0" y="34.0" font-size="12" text-anchor="start" fill="#64748b" font-weight="normal">C</text>
<rect x="671.0" y="24.0" width="12.0" height="12.0" rx="3" fill="#2563eb"/>
<text x="689.0" y="34.0" font-size="12" text-anchor="start" fill="#64748b" font-weight="normal">RVV</text>
</svg>
